<mxfile host="Electron" agent="Mozilla/5.0 (Windows NT 10.0; Win64; x64) AppleWebKit/537.36 (KHTML, like Gecko) draw.io/28.0.6 Chrome/138.0.7204.100 Electron/37.2.3 Safari/537.36" version="28.0.6">
  <diagram name="Страница — 1" id="4X8TxdNfLa8VBPPbclGo">
    <mxGraphModel dx="1676" dy="2280" grid="1" gridSize="10" guides="1" tooltips="1" connect="1" arrows="1" fold="1" page="1" pageScale="1" pageWidth="827" pageHeight="1169" math="0" shadow="0">
      <root>
        <mxCell id="0" />
        <mxCell id="1" parent="0" />
        <mxCell id="k4QYSEot3rWmYXcoVr1L-91" value="" style="rounded=1;whiteSpace=wrap;html=1;dashed=1;" vertex="1" parent="1">
          <mxGeometry x="40" y="-340" width="780" height="640" as="geometry" />
        </mxCell>
        <mxCell id="k4QYSEot3rWmYXcoVr1L-85" value="" style="rounded=0;whiteSpace=wrap;html=1;dashed=1;" vertex="1" parent="1">
          <mxGeometry x="80" y="-300" width="640" height="240" as="geometry" />
        </mxCell>
        <mxCell id="k4QYSEot3rWmYXcoVr1L-70" value="" style="rounded=1;whiteSpace=wrap;html=1;dashed=1;" vertex="1" parent="1">
          <mxGeometry x="40" y="320" width="780" height="510" as="geometry" />
        </mxCell>
        <mxCell id="k4QYSEot3rWmYXcoVr1L-69" value="" style="rounded=1;whiteSpace=wrap;html=1;dashed=1;" vertex="1" parent="1">
          <mxGeometry x="40" y="840" width="780" height="320" as="geometry" />
        </mxCell>
        <mxCell id="k4QYSEot3rWmYXcoVr1L-33" value="" style="shape=cylinder3;whiteSpace=wrap;html=1;boundedLbl=1;backgroundOutline=1;size=15;" vertex="1" parent="1">
          <mxGeometry x="515" y="-270" width="140" height="190" as="geometry" />
        </mxCell>
        <mxCell id="k4QYSEot3rWmYXcoVr1L-32" value="" style="ellipse;shape=cloud;whiteSpace=wrap;html=1;" vertex="1" parent="1">
          <mxGeometry x="160" y="-255" width="230" height="130" as="geometry" />
        </mxCell>
        <mxCell id="k4QYSEot3rWmYXcoVr1L-41" style="edgeStyle=orthogonalEdgeStyle;rounded=0;orthogonalLoop=1;jettySize=auto;html=1;exitX=0.5;exitY=0;exitDx=0;exitDy=0;entryX=0.5;entryY=1;entryDx=0;entryDy=0;" edge="1" parent="1" source="k4QYSEot3rWmYXcoVr1L-1" target="k4QYSEot3rWmYXcoVr1L-2">
          <mxGeometry relative="1" as="geometry" />
        </mxCell>
        <mxCell id="k4QYSEot3rWmYXcoVr1L-59" style="edgeStyle=orthogonalEdgeStyle;rounded=0;orthogonalLoop=1;jettySize=auto;html=1;exitX=1;exitY=0.5;exitDx=0;exitDy=0;entryX=0;entryY=0.5;entryDx=0;entryDy=0;dashed=1;" edge="1" parent="1" source="k4QYSEot3rWmYXcoVr1L-1" target="k4QYSEot3rWmYXcoVr1L-3">
          <mxGeometry relative="1" as="geometry" />
        </mxCell>
        <mxCell id="k4QYSEot3rWmYXcoVr1L-60" style="edgeStyle=orthogonalEdgeStyle;rounded=0;orthogonalLoop=1;jettySize=auto;html=1;exitX=0.5;exitY=1;exitDx=0;exitDy=0;entryX=0.314;entryY=0.996;entryDx=0;entryDy=0;dashed=1;entryPerimeter=0;" edge="1" parent="1" source="k4QYSEot3rWmYXcoVr1L-1" target="k4QYSEot3rWmYXcoVr1L-5">
          <mxGeometry relative="1" as="geometry" />
        </mxCell>
        <mxCell id="k4QYSEot3rWmYXcoVr1L-1" value="Auth&lt;div&gt;Screen&lt;/div&gt;" style="rounded=0;whiteSpace=wrap;html=1;" vertex="1" parent="1">
          <mxGeometry x="80" y="960" width="90" height="160" as="geometry" />
        </mxCell>
        <mxCell id="k4QYSEot3rWmYXcoVr1L-47" style="edgeStyle=orthogonalEdgeStyle;rounded=0;orthogonalLoop=1;jettySize=auto;html=1;exitX=0.5;exitY=0;exitDx=0;exitDy=0;entryX=0.5;entryY=1;entryDx=0;entryDy=0;" edge="1" parent="1" source="k4QYSEot3rWmYXcoVr1L-2" target="k4QYSEot3rWmYXcoVr1L-12">
          <mxGeometry relative="1" as="geometry" />
        </mxCell>
        <mxCell id="k4QYSEot3rWmYXcoVr1L-2" value="Auth&lt;div&gt;ViewModel&lt;/div&gt;" style="rounded=1;whiteSpace=wrap;html=1;" vertex="1" parent="1">
          <mxGeometry x="65" y="870" width="120" height="60" as="geometry" />
        </mxCell>
        <mxCell id="k4QYSEot3rWmYXcoVr1L-42" style="edgeStyle=orthogonalEdgeStyle;rounded=0;orthogonalLoop=1;jettySize=auto;html=1;exitX=0.5;exitY=0;exitDx=0;exitDy=0;entryX=0.5;entryY=1;entryDx=0;entryDy=0;" edge="1" parent="1" source="k4QYSEot3rWmYXcoVr1L-3" target="k4QYSEot3rWmYXcoVr1L-4">
          <mxGeometry relative="1" as="geometry" />
        </mxCell>
        <mxCell id="k4QYSEot3rWmYXcoVr1L-61" style="edgeStyle=orthogonalEdgeStyle;rounded=0;orthogonalLoop=1;jettySize=auto;html=1;exitX=1;exitY=0.5;exitDx=0;exitDy=0;entryX=0;entryY=0.5;entryDx=0;entryDy=0;dashed=1;" edge="1" parent="1" source="k4QYSEot3rWmYXcoVr1L-3" target="k4QYSEot3rWmYXcoVr1L-5">
          <mxGeometry relative="1" as="geometry" />
        </mxCell>
        <mxCell id="k4QYSEot3rWmYXcoVr1L-3" value="Register&lt;div&gt;&lt;div&gt;Screen&lt;/div&gt;&lt;/div&gt;" style="rounded=0;whiteSpace=wrap;html=1;" vertex="1" parent="1">
          <mxGeometry x="205" y="960" width="90" height="160" as="geometry" />
        </mxCell>
        <mxCell id="k4QYSEot3rWmYXcoVr1L-48" style="edgeStyle=orthogonalEdgeStyle;rounded=0;orthogonalLoop=1;jettySize=auto;html=1;exitX=0.5;exitY=0;exitDx=0;exitDy=0;entryX=0.5;entryY=1;entryDx=0;entryDy=0;" edge="1" parent="1" source="k4QYSEot3rWmYXcoVr1L-4" target="k4QYSEot3rWmYXcoVr1L-13">
          <mxGeometry relative="1" as="geometry" />
        </mxCell>
        <mxCell id="k4QYSEot3rWmYXcoVr1L-4" value="Register&lt;br&gt;&lt;div&gt;ViewModel&lt;/div&gt;" style="rounded=1;whiteSpace=wrap;html=1;" vertex="1" parent="1">
          <mxGeometry x="190" y="870" width="120" height="60" as="geometry" />
        </mxCell>
        <mxCell id="k4QYSEot3rWmYXcoVr1L-43" style="rounded=0;orthogonalLoop=1;jettySize=auto;html=1;exitX=0.5;exitY=0;exitDx=0;exitDy=0;entryX=0.5;entryY=1;entryDx=0;entryDy=0;" edge="1" parent="1" source="k4QYSEot3rWmYXcoVr1L-5" target="k4QYSEot3rWmYXcoVr1L-6">
          <mxGeometry relative="1" as="geometry" />
        </mxCell>
        <mxCell id="k4QYSEot3rWmYXcoVr1L-62" style="edgeStyle=orthogonalEdgeStyle;rounded=0;orthogonalLoop=1;jettySize=auto;html=1;exitX=1;exitY=0.5;exitDx=0;exitDy=0;entryX=0;entryY=0.5;entryDx=0;entryDy=0;dashed=1;" edge="1" parent="1" source="k4QYSEot3rWmYXcoVr1L-5" target="k4QYSEot3rWmYXcoVr1L-7">
          <mxGeometry relative="1" as="geometry" />
        </mxCell>
        <mxCell id="k4QYSEot3rWmYXcoVr1L-63" style="edgeStyle=orthogonalEdgeStyle;rounded=0;orthogonalLoop=1;jettySize=auto;html=1;exitX=0.75;exitY=1;exitDx=0;exitDy=0;entryX=0.5;entryY=1;entryDx=0;entryDy=0;dashed=1;" edge="1" parent="1" source="k4QYSEot3rWmYXcoVr1L-5" target="k4QYSEot3rWmYXcoVr1L-8">
          <mxGeometry relative="1" as="geometry" />
        </mxCell>
        <mxCell id="k4QYSEot3rWmYXcoVr1L-5" value="Shops&lt;div&gt;&lt;div&gt;Screen&lt;/div&gt;&lt;/div&gt;" style="rounded=0;whiteSpace=wrap;html=1;" vertex="1" parent="1">
          <mxGeometry x="335" y="960" width="90" height="160" as="geometry" />
        </mxCell>
        <mxCell id="k4QYSEot3rWmYXcoVr1L-55" style="edgeStyle=orthogonalEdgeStyle;rounded=0;orthogonalLoop=1;jettySize=auto;html=1;exitX=0;exitY=0.5;exitDx=0;exitDy=0;entryX=0;entryY=0.5;entryDx=0;entryDy=0;" edge="1" parent="1" source="k4QYSEot3rWmYXcoVr1L-6" target="k4QYSEot3rWmYXcoVr1L-16">
          <mxGeometry relative="1" as="geometry" />
        </mxCell>
        <mxCell id="k4QYSEot3rWmYXcoVr1L-6" value="Shops&lt;br&gt;&lt;div&gt;ViewModel&lt;/div&gt;" style="rounded=1;whiteSpace=wrap;html=1;" vertex="1" parent="1">
          <mxGeometry x="370" y="870" width="120" height="60" as="geometry" />
        </mxCell>
        <mxCell id="k4QYSEot3rWmYXcoVr1L-44" style="rounded=0;orthogonalLoop=1;jettySize=auto;html=1;exitX=0.5;exitY=0;exitDx=0;exitDy=0;entryX=0.5;entryY=1;entryDx=0;entryDy=0;" edge="1" parent="1" source="k4QYSEot3rWmYXcoVr1L-7" target="k4QYSEot3rWmYXcoVr1L-6">
          <mxGeometry relative="1" as="geometry" />
        </mxCell>
        <mxCell id="k4QYSEot3rWmYXcoVr1L-64" style="edgeStyle=orthogonalEdgeStyle;rounded=0;orthogonalLoop=1;jettySize=auto;html=1;exitX=0.5;exitY=1;exitDx=0;exitDy=0;dashed=1;endArrow=none;endFill=0;" edge="1" parent="1" source="k4QYSEot3rWmYXcoVr1L-7">
          <mxGeometry relative="1" as="geometry">
            <mxPoint x="485.344827586207" y="1140" as="targetPoint" />
          </mxGeometry>
        </mxCell>
        <mxCell id="k4QYSEot3rWmYXcoVr1L-7" value="Map&lt;div&gt;&lt;div&gt;Screen&lt;/div&gt;&lt;/div&gt;" style="rounded=0;whiteSpace=wrap;html=1;" vertex="1" parent="1">
          <mxGeometry x="440" y="960" width="90" height="160" as="geometry" />
        </mxCell>
        <mxCell id="k4QYSEot3rWmYXcoVr1L-45" style="edgeStyle=orthogonalEdgeStyle;rounded=0;orthogonalLoop=1;jettySize=auto;html=1;exitX=0.5;exitY=0;exitDx=0;exitDy=0;entryX=0.5;entryY=1;entryDx=0;entryDy=0;" edge="1" parent="1" source="k4QYSEot3rWmYXcoVr1L-8" target="k4QYSEot3rWmYXcoVr1L-9">
          <mxGeometry relative="1" as="geometry" />
        </mxCell>
        <mxCell id="k4QYSEot3rWmYXcoVr1L-66" style="edgeStyle=orthogonalEdgeStyle;rounded=0;orthogonalLoop=1;jettySize=auto;html=1;exitX=1;exitY=0.5;exitDx=0;exitDy=0;entryX=0;entryY=0.5;entryDx=0;entryDy=0;dashed=1;startArrow=classic;startFill=1;" edge="1" parent="1" source="k4QYSEot3rWmYXcoVr1L-8" target="k4QYSEot3rWmYXcoVr1L-10">
          <mxGeometry relative="1" as="geometry" />
        </mxCell>
        <mxCell id="k4QYSEot3rWmYXcoVr1L-8" value="Menu&lt;br&gt;&lt;div&gt;&lt;div&gt;Screen&lt;/div&gt;&lt;/div&gt;" style="rounded=0;whiteSpace=wrap;html=1;" vertex="1" parent="1">
          <mxGeometry x="565" y="960" width="90" height="160" as="geometry" />
        </mxCell>
        <mxCell id="k4QYSEot3rWmYXcoVr1L-49" style="edgeStyle=orthogonalEdgeStyle;rounded=0;orthogonalLoop=1;jettySize=auto;html=1;exitX=0;exitY=0.5;exitDx=0;exitDy=0;entryX=0;entryY=0.5;entryDx=0;entryDy=0;" edge="1" parent="1" source="k4QYSEot3rWmYXcoVr1L-9" target="k4QYSEot3rWmYXcoVr1L-18">
          <mxGeometry relative="1" as="geometry" />
        </mxCell>
        <mxCell id="k4QYSEot3rWmYXcoVr1L-9" value="Menu&lt;br&gt;&lt;div&gt;ViewModel&lt;/div&gt;" style="rounded=1;whiteSpace=wrap;html=1;" vertex="1" parent="1">
          <mxGeometry x="550" y="870" width="120" height="60" as="geometry" />
        </mxCell>
        <mxCell id="k4QYSEot3rWmYXcoVr1L-46" style="edgeStyle=orthogonalEdgeStyle;rounded=0;orthogonalLoop=1;jettySize=auto;html=1;exitX=0.5;exitY=0;exitDx=0;exitDy=0;entryX=0.5;entryY=1;entryDx=0;entryDy=0;" edge="1" parent="1" source="k4QYSEot3rWmYXcoVr1L-10" target="k4QYSEot3rWmYXcoVr1L-11">
          <mxGeometry relative="1" as="geometry" />
        </mxCell>
        <mxCell id="k4QYSEot3rWmYXcoVr1L-10" value="Payment&lt;br&gt;&lt;div&gt;&lt;div&gt;Screen&lt;/div&gt;&lt;/div&gt;" style="rounded=0;whiteSpace=wrap;html=1;" vertex="1" parent="1">
          <mxGeometry x="695" y="960" width="90" height="160" as="geometry" />
        </mxCell>
        <mxCell id="k4QYSEot3rWmYXcoVr1L-11" value="Payment&lt;br&gt;&lt;div&gt;ViewModel&lt;/div&gt;" style="rounded=1;whiteSpace=wrap;html=1;" vertex="1" parent="1">
          <mxGeometry x="680" y="870" width="120" height="60" as="geometry" />
        </mxCell>
        <mxCell id="k4QYSEot3rWmYXcoVr1L-51" style="edgeStyle=orthogonalEdgeStyle;rounded=0;orthogonalLoop=1;jettySize=auto;html=1;exitX=0.5;exitY=0;exitDx=0;exitDy=0;entryX=0.5;entryY=1;entryDx=0;entryDy=0;" edge="1" parent="1" source="k4QYSEot3rWmYXcoVr1L-12" target="k4QYSEot3rWmYXcoVr1L-19">
          <mxGeometry relative="1" as="geometry" />
        </mxCell>
        <mxCell id="k4QYSEot3rWmYXcoVr1L-12" value="SignIn&lt;div&gt;UseCase&lt;/div&gt;" style="ellipse;whiteSpace=wrap;html=1;" vertex="1" parent="1">
          <mxGeometry x="65" y="730" width="120" height="80" as="geometry" />
        </mxCell>
        <mxCell id="k4QYSEot3rWmYXcoVr1L-52" style="edgeStyle=orthogonalEdgeStyle;rounded=0;orthogonalLoop=1;jettySize=auto;html=1;exitX=0.5;exitY=0;exitDx=0;exitDy=0;entryX=0.5;entryY=1;entryDx=0;entryDy=0;" edge="1" parent="1" source="k4QYSEot3rWmYXcoVr1L-13" target="k4QYSEot3rWmYXcoVr1L-20">
          <mxGeometry relative="1" as="geometry" />
        </mxCell>
        <mxCell id="k4QYSEot3rWmYXcoVr1L-13" value="SignUp&lt;div&gt;UseCase&lt;/div&gt;" style="ellipse;whiteSpace=wrap;html=1;" vertex="1" parent="1">
          <mxGeometry x="190" y="730" width="120" height="80" as="geometry" />
        </mxCell>
        <mxCell id="k4QYSEot3rWmYXcoVr1L-36" style="edgeStyle=orthogonalEdgeStyle;rounded=0;orthogonalLoop=1;jettySize=auto;html=1;exitX=1;exitY=0.5;exitDx=0;exitDy=0;entryX=1;entryY=0.5;entryDx=0;entryDy=0;" edge="1" parent="1" source="k4QYSEot3rWmYXcoVr1L-14" target="k4QYSEot3rWmYXcoVr1L-21">
          <mxGeometry relative="1" as="geometry" />
        </mxCell>
        <mxCell id="k4QYSEot3rWmYXcoVr1L-58" style="edgeStyle=orthogonalEdgeStyle;rounded=0;orthogonalLoop=1;jettySize=auto;html=1;exitX=0;exitY=0.5;exitDx=0;exitDy=0;endArrow=none;endFill=0;startArrow=classic;startFill=1;" edge="1" parent="1" source="k4QYSEot3rWmYXcoVr1L-14">
          <mxGeometry relative="1" as="geometry">
            <mxPoint x="350" y="769.9767441860465" as="targetPoint" />
          </mxGeometry>
        </mxCell>
        <mxCell id="k4QYSEot3rWmYXcoVr1L-14" value="GetLocations&lt;div&gt;UseCase&lt;/div&gt;" style="ellipse;whiteSpace=wrap;html=1;" vertex="1" parent="1">
          <mxGeometry x="370" y="730" width="120" height="80" as="geometry" />
        </mxCell>
        <mxCell id="k4QYSEot3rWmYXcoVr1L-37" style="edgeStyle=orthogonalEdgeStyle;rounded=0;orthogonalLoop=1;jettySize=auto;html=1;exitX=1;exitY=0.5;exitDx=0;exitDy=0;entryX=1;entryY=0.5;entryDx=0;entryDy=0;" edge="1" parent="1" source="k4QYSEot3rWmYXcoVr1L-15" target="k4QYSEot3rWmYXcoVr1L-22">
          <mxGeometry relative="1" as="geometry">
            <Array as="points">
              <mxPoint x="520" y="690" />
              <mxPoint x="520" y="440" />
            </Array>
          </mxGeometry>
        </mxCell>
        <mxCell id="k4QYSEot3rWmYXcoVr1L-57" style="edgeStyle=orthogonalEdgeStyle;rounded=0;orthogonalLoop=1;jettySize=auto;html=1;exitX=0;exitY=0.5;exitDx=0;exitDy=0;endArrow=none;endFill=0;startArrow=classic;startFill=1;" edge="1" parent="1" source="k4QYSEot3rWmYXcoVr1L-15">
          <mxGeometry relative="1" as="geometry">
            <mxPoint x="350" y="690" as="targetPoint" />
          </mxGeometry>
        </mxCell>
        <mxCell id="k4QYSEot3rWmYXcoVr1L-15" value="GetGeoLocation&lt;div&gt;UseCase&lt;/div&gt;" style="ellipse;whiteSpace=wrap;html=1;" vertex="1" parent="1">
          <mxGeometry x="370" y="650" width="120" height="80" as="geometry" />
        </mxCell>
        <mxCell id="k4QYSEot3rWmYXcoVr1L-38" style="edgeStyle=orthogonalEdgeStyle;rounded=0;orthogonalLoop=1;jettySize=auto;html=1;exitX=1;exitY=0.5;exitDx=0;exitDy=0;entryX=1;entryY=0.5;entryDx=0;entryDy=0;" edge="1" parent="1" source="k4QYSEot3rWmYXcoVr1L-16" target="k4QYSEot3rWmYXcoVr1L-23">
          <mxGeometry relative="1" as="geometry">
            <Array as="points">
              <mxPoint x="530" y="610" />
              <mxPoint x="530" y="370" />
            </Array>
          </mxGeometry>
        </mxCell>
        <mxCell id="k4QYSEot3rWmYXcoVr1L-16" value="GetGeoDistance&lt;div&gt;UseCase&lt;/div&gt;" style="ellipse;whiteSpace=wrap;html=1;" vertex="1" parent="1">
          <mxGeometry x="370" y="570" width="120" height="80" as="geometry" />
        </mxCell>
        <mxCell id="k4QYSEot3rWmYXcoVr1L-50" style="edgeStyle=orthogonalEdgeStyle;rounded=0;orthogonalLoop=1;jettySize=auto;html=1;exitX=0;exitY=0.5;exitDx=0;exitDy=0;endArrow=none;endFill=0;startArrow=classic;startFill=1;" edge="1" parent="1" source="k4QYSEot3rWmYXcoVr1L-17">
          <mxGeometry relative="1" as="geometry">
            <mxPoint x="530" y="770" as="targetPoint" />
          </mxGeometry>
        </mxCell>
        <mxCell id="k4QYSEot3rWmYXcoVr1L-53" style="edgeStyle=orthogonalEdgeStyle;rounded=0;orthogonalLoop=1;jettySize=auto;html=1;exitX=1;exitY=0.5;exitDx=0;exitDy=0;entryX=1;entryY=0.5;entryDx=0;entryDy=0;" edge="1" parent="1" source="k4QYSEot3rWmYXcoVr1L-17" target="k4QYSEot3rWmYXcoVr1L-24">
          <mxGeometry relative="1" as="geometry" />
        </mxCell>
        <mxCell id="k4QYSEot3rWmYXcoVr1L-17" value="GetMenu&lt;div&gt;UseCase&lt;/div&gt;" style="ellipse;whiteSpace=wrap;html=1;" vertex="1" parent="1">
          <mxGeometry x="590" y="730" width="120" height="80" as="geometry" />
        </mxCell>
        <mxCell id="k4QYSEot3rWmYXcoVr1L-54" style="edgeStyle=orthogonalEdgeStyle;rounded=0;orthogonalLoop=1;jettySize=auto;html=1;exitX=1;exitY=0.5;exitDx=0;exitDy=0;entryX=1;entryY=0.5;entryDx=0;entryDy=0;" edge="1" parent="1" source="k4QYSEot3rWmYXcoVr1L-18" target="k4QYSEot3rWmYXcoVr1L-25">
          <mxGeometry relative="1" as="geometry">
            <Array as="points">
              <mxPoint x="740" y="690" />
              <mxPoint x="740" y="430" />
            </Array>
          </mxGeometry>
        </mxCell>
        <mxCell id="k4QYSEot3rWmYXcoVr1L-18" value="GetImage&lt;div&gt;UseCase&lt;/div&gt;" style="ellipse;whiteSpace=wrap;html=1;" vertex="1" parent="1">
          <mxGeometry x="590" y="650" width="120" height="80" as="geometry" />
        </mxCell>
        <mxCell id="k4QYSEot3rWmYXcoVr1L-19" value="SignIn&lt;div&gt;Repository&lt;/div&gt;" style="rounded=1;whiteSpace=wrap;html=1;" vertex="1" parent="1">
          <mxGeometry x="65" y="480" width="120" height="60" as="geometry" />
        </mxCell>
        <mxCell id="k4QYSEot3rWmYXcoVr1L-20" value="SignUp&lt;div&gt;Repository&lt;/div&gt;" style="rounded=1;whiteSpace=wrap;html=1;" vertex="1" parent="1">
          <mxGeometry x="190" y="480" width="120" height="60" as="geometry" />
        </mxCell>
        <mxCell id="k4QYSEot3rWmYXcoVr1L-21" value="GetLocations&lt;div&gt;Repository&lt;/div&gt;" style="rounded=1;whiteSpace=wrap;html=1;" vertex="1" parent="1">
          <mxGeometry x="370" y="480" width="120" height="60" as="geometry" />
        </mxCell>
        <mxCell id="k4QYSEot3rWmYXcoVr1L-22" value="GetGeoLocation&lt;div&gt;Repository&lt;/div&gt;" style="rounded=1;whiteSpace=wrap;html=1;" vertex="1" parent="1">
          <mxGeometry x="370" y="410" width="120" height="60" as="geometry" />
        </mxCell>
        <mxCell id="k4QYSEot3rWmYXcoVr1L-23" value="GetGeoDistance&lt;div&gt;Repository&lt;/div&gt;" style="rounded=1;whiteSpace=wrap;html=1;" vertex="1" parent="1">
          <mxGeometry x="370" y="340" width="120" height="60" as="geometry" />
        </mxCell>
        <mxCell id="k4QYSEot3rWmYXcoVr1L-24" value="GetMenu&lt;div&gt;Repository&lt;/div&gt;" style="rounded=1;whiteSpace=wrap;html=1;" vertex="1" parent="1">
          <mxGeometry x="590" y="480" width="120" height="60" as="geometry" />
        </mxCell>
        <mxCell id="k4QYSEot3rWmYXcoVr1L-25" value="GetImage&lt;div&gt;Repository&lt;/div&gt;" style="rounded=1;whiteSpace=wrap;html=1;" vertex="1" parent="1">
          <mxGeometry x="590" y="400" width="120" height="60" as="geometry" />
        </mxCell>
        <mxCell id="k4QYSEot3rWmYXcoVr1L-26" value="Gps&lt;div&gt;Client&lt;/div&gt;" style="rounded=1;whiteSpace=wrap;html=1;" vertex="1" parent="1">
          <mxGeometry x="370" y="-30" width="120" height="60" as="geometry" />
        </mxCell>
        <mxCell id="k4QYSEot3rWmYXcoVr1L-27" value="CoffeeApi&lt;div&gt;Retrofit&lt;/div&gt;" style="rounded=1;whiteSpace=wrap;html=1;" vertex="1" parent="1">
          <mxGeometry x="215" y="-220" width="120" height="60" as="geometry" />
        </mxCell>
        <mxCell id="k4QYSEot3rWmYXcoVr1L-28" value="Preferenses&lt;div&gt;Client&lt;/div&gt;" style="rounded=1;whiteSpace=wrap;html=1;" vertex="1" parent="1">
          <mxGeometry x="525" y="-230" width="120" height="60" as="geometry" />
        </mxCell>
        <mxCell id="k4QYSEot3rWmYXcoVr1L-29" value="UserData&lt;div&gt;Preferenses&lt;/div&gt;" style="rounded=1;whiteSpace=wrap;html=1;" vertex="1" parent="1">
          <mxGeometry x="525" y="-160" width="120" height="60" as="geometry" />
        </mxCell>
        <mxCell id="k4QYSEot3rWmYXcoVr1L-76" style="edgeStyle=orthogonalEdgeStyle;rounded=0;orthogonalLoop=1;jettySize=auto;html=1;exitX=0.5;exitY=1;exitDx=0;exitDy=0;entryX=0.5;entryY=0;entryDx=0;entryDy=0;dashed=1;dashPattern=8 8;" edge="1" parent="1" source="k4QYSEot3rWmYXcoVr1L-67" target="k4QYSEot3rWmYXcoVr1L-19">
          <mxGeometry relative="1" as="geometry" />
        </mxCell>
        <mxCell id="k4QYSEot3rWmYXcoVr1L-67" value="SignIn&lt;div&gt;RepositoryImpl&lt;/div&gt;" style="rounded=1;whiteSpace=wrap;html=1;" vertex="1" parent="1">
          <mxGeometry x="65" y="210" width="120" height="60" as="geometry" />
        </mxCell>
        <mxCell id="k4QYSEot3rWmYXcoVr1L-77" style="edgeStyle=orthogonalEdgeStyle;rounded=0;orthogonalLoop=1;jettySize=auto;html=1;exitX=0.5;exitY=1;exitDx=0;exitDy=0;entryX=0.5;entryY=0;entryDx=0;entryDy=0;dashed=1;dashPattern=8 8;" edge="1" parent="1" source="k4QYSEot3rWmYXcoVr1L-68" target="k4QYSEot3rWmYXcoVr1L-20">
          <mxGeometry relative="1" as="geometry" />
        </mxCell>
        <mxCell id="k4QYSEot3rWmYXcoVr1L-68" value="SignUp&lt;div&gt;RepositoryImpl&lt;/div&gt;" style="rounded=1;whiteSpace=wrap;html=1;" vertex="1" parent="1">
          <mxGeometry x="190" y="210" width="120" height="60" as="geometry" />
        </mxCell>
        <mxCell id="k4QYSEot3rWmYXcoVr1L-78" style="edgeStyle=orthogonalEdgeStyle;rounded=0;orthogonalLoop=1;jettySize=auto;html=1;exitX=0;exitY=0.5;exitDx=0;exitDy=0;entryX=0;entryY=0.5;entryDx=0;entryDy=0;dashed=1;dashPattern=8 8;" edge="1" parent="1" source="k4QYSEot3rWmYXcoVr1L-71" target="k4QYSEot3rWmYXcoVr1L-21">
          <mxGeometry relative="1" as="geometry" />
        </mxCell>
        <mxCell id="k4QYSEot3rWmYXcoVr1L-71" value="GetLocations&lt;div&gt;&lt;span style=&quot;background-color: transparent; color: light-dark(rgb(0, 0, 0), rgb(255, 255, 255));&quot;&gt;Repository&lt;/span&gt;Impl&lt;br&gt;&lt;/div&gt;" style="rounded=1;whiteSpace=wrap;html=1;" vertex="1" parent="1">
          <mxGeometry x="370" y="210" width="120" height="60" as="geometry" />
        </mxCell>
        <mxCell id="k4QYSEot3rWmYXcoVr1L-79" style="edgeStyle=orthogonalEdgeStyle;rounded=0;orthogonalLoop=1;jettySize=auto;html=1;exitX=0;exitY=0.5;exitDx=0;exitDy=0;entryX=0;entryY=0.5;entryDx=0;entryDy=0;dashed=1;dashPattern=8 8;" edge="1" parent="1" source="k4QYSEot3rWmYXcoVr1L-72" target="k4QYSEot3rWmYXcoVr1L-22">
          <mxGeometry relative="1" as="geometry">
            <Array as="points">
              <mxPoint x="340" y="170" />
              <mxPoint x="340" y="440" />
            </Array>
          </mxGeometry>
        </mxCell>
        <mxCell id="k4QYSEot3rWmYXcoVr1L-83" style="edgeStyle=orthogonalEdgeStyle;rounded=0;orthogonalLoop=1;jettySize=auto;html=1;exitX=1;exitY=0.5;exitDx=0;exitDy=0;entryX=1;entryY=0.5;entryDx=0;entryDy=0;" edge="1" parent="1" source="k4QYSEot3rWmYXcoVr1L-72" target="k4QYSEot3rWmYXcoVr1L-26">
          <mxGeometry relative="1" as="geometry" />
        </mxCell>
        <mxCell id="k4QYSEot3rWmYXcoVr1L-72" value="GetGeoLocation&lt;div&gt;&lt;span style=&quot;background-color: transparent; color: light-dark(rgb(0, 0, 0), rgb(255, 255, 255));&quot;&gt;Repository&lt;/span&gt;Impl&lt;br&gt;&lt;/div&gt;" style="rounded=1;whiteSpace=wrap;html=1;" vertex="1" parent="1">
          <mxGeometry x="370" y="140" width="120" height="60" as="geometry" />
        </mxCell>
        <mxCell id="k4QYSEot3rWmYXcoVr1L-80" style="edgeStyle=orthogonalEdgeStyle;rounded=0;orthogonalLoop=1;jettySize=auto;html=1;exitX=0;exitY=0.5;exitDx=0;exitDy=0;entryX=0;entryY=0.5;entryDx=0;entryDy=0;dashed=1;dashPattern=8 8;" edge="1" parent="1" source="k4QYSEot3rWmYXcoVr1L-73" target="k4QYSEot3rWmYXcoVr1L-23">
          <mxGeometry relative="1" as="geometry">
            <Array as="points">
              <mxPoint x="330" y="100" />
              <mxPoint x="330" y="370" />
            </Array>
          </mxGeometry>
        </mxCell>
        <mxCell id="k4QYSEot3rWmYXcoVr1L-84" style="edgeStyle=orthogonalEdgeStyle;rounded=0;orthogonalLoop=1;jettySize=auto;html=1;exitX=1;exitY=0.5;exitDx=0;exitDy=0;endArrow=none;endFill=0;" edge="1" parent="1" source="k4QYSEot3rWmYXcoVr1L-73">
          <mxGeometry relative="1" as="geometry">
            <mxPoint x="510" y="100" as="targetPoint" />
          </mxGeometry>
        </mxCell>
        <mxCell id="k4QYSEot3rWmYXcoVr1L-73" value="GetGeoDistance&lt;div&gt;&lt;span style=&quot;background-color: transparent; color: light-dark(rgb(0, 0, 0), rgb(255, 255, 255));&quot;&gt;Repository&lt;/span&gt;Impl&lt;br&gt;&lt;/div&gt;" style="rounded=1;whiteSpace=wrap;html=1;" vertex="1" parent="1">
          <mxGeometry x="370" y="70" width="120" height="60" as="geometry" />
        </mxCell>
        <mxCell id="k4QYSEot3rWmYXcoVr1L-81" style="edgeStyle=orthogonalEdgeStyle;rounded=0;orthogonalLoop=1;jettySize=auto;html=1;exitX=0;exitY=0.5;exitDx=0;exitDy=0;entryX=0;entryY=0.5;entryDx=0;entryDy=0;dashed=1;dashPattern=8 8;" edge="1" parent="1" source="k4QYSEot3rWmYXcoVr1L-74" target="k4QYSEot3rWmYXcoVr1L-24">
          <mxGeometry relative="1" as="geometry" />
        </mxCell>
        <mxCell id="k4QYSEot3rWmYXcoVr1L-88" style="edgeStyle=orthogonalEdgeStyle;rounded=0;orthogonalLoop=1;jettySize=auto;html=1;exitX=1;exitY=0.5;exitDx=0;exitDy=0;entryX=1;entryY=0.5;entryDx=0;entryDy=0;" edge="1" parent="1" source="k4QYSEot3rWmYXcoVr1L-74" target="k4QYSEot3rWmYXcoVr1L-85">
          <mxGeometry relative="1" as="geometry">
            <Array as="points">
              <mxPoint x="740" y="240" />
              <mxPoint x="740" y="-180" />
            </Array>
          </mxGeometry>
        </mxCell>
        <mxCell id="k4QYSEot3rWmYXcoVr1L-74" value="GetMenu&lt;div&gt;RepositoryImpl&lt;/div&gt;" style="rounded=1;whiteSpace=wrap;html=1;" vertex="1" parent="1">
          <mxGeometry x="590" y="210" width="120" height="60" as="geometry" />
        </mxCell>
        <mxCell id="k4QYSEot3rWmYXcoVr1L-82" style="edgeStyle=orthogonalEdgeStyle;rounded=0;orthogonalLoop=1;jettySize=auto;html=1;exitX=0;exitY=0.5;exitDx=0;exitDy=0;entryX=0;entryY=0.5;entryDx=0;entryDy=0;dashed=1;dashPattern=8 8;" edge="1" parent="1" source="k4QYSEot3rWmYXcoVr1L-75" target="k4QYSEot3rWmYXcoVr1L-25">
          <mxGeometry relative="1" as="geometry">
            <Array as="points">
              <mxPoint x="560" y="160" />
              <mxPoint x="560" y="430" />
            </Array>
          </mxGeometry>
        </mxCell>
        <mxCell id="k4QYSEot3rWmYXcoVr1L-89" style="edgeStyle=orthogonalEdgeStyle;rounded=0;orthogonalLoop=1;jettySize=auto;html=1;exitX=1;exitY=0.5;exitDx=0;exitDy=0;endArrow=none;endFill=0;" edge="1" parent="1" source="k4QYSEot3rWmYXcoVr1L-75">
          <mxGeometry relative="1" as="geometry">
            <mxPoint x="740" y="160" as="targetPoint" />
          </mxGeometry>
        </mxCell>
        <mxCell id="k4QYSEot3rWmYXcoVr1L-75" value="GetImage&lt;div&gt;RepositoryImpl&lt;/div&gt;" style="rounded=1;whiteSpace=wrap;html=1;" vertex="1" parent="1">
          <mxGeometry x="590" y="130" width="120" height="60" as="geometry" />
        </mxCell>
        <mxCell id="k4QYSEot3rWmYXcoVr1L-86" style="edgeStyle=orthogonalEdgeStyle;rounded=0;orthogonalLoop=1;jettySize=auto;html=1;exitX=0.5;exitY=0;exitDx=0;exitDy=0;entryX=0.07;entryY=1;entryDx=0;entryDy=0;entryPerimeter=0;" edge="1" parent="1" source="k4QYSEot3rWmYXcoVr1L-67" target="k4QYSEot3rWmYXcoVr1L-85">
          <mxGeometry relative="1" as="geometry" />
        </mxCell>
        <mxCell id="k4QYSEot3rWmYXcoVr1L-87" style="edgeStyle=orthogonalEdgeStyle;rounded=0;orthogonalLoop=1;jettySize=auto;html=1;exitX=0.5;exitY=0;exitDx=0;exitDy=0;entryX=0.266;entryY=1.004;entryDx=0;entryDy=0;entryPerimeter=0;" edge="1" parent="1" source="k4QYSEot3rWmYXcoVr1L-68" target="k4QYSEot3rWmYXcoVr1L-85">
          <mxGeometry relative="1" as="geometry" />
        </mxCell>
        <mxCell id="k4QYSEot3rWmYXcoVr1L-90" style="edgeStyle=orthogonalEdgeStyle;rounded=0;orthogonalLoop=1;jettySize=auto;html=1;exitX=1;exitY=0.5;exitDx=0;exitDy=0;entryX=0.714;entryY=1.004;entryDx=0;entryDy=0;entryPerimeter=0;" edge="1" parent="1" source="k4QYSEot3rWmYXcoVr1L-71" target="k4QYSEot3rWmYXcoVr1L-85">
          <mxGeometry relative="1" as="geometry">
            <Array as="points">
              <mxPoint x="537" y="240" />
            </Array>
          </mxGeometry>
        </mxCell>
        <mxCell id="k4QYSEot3rWmYXcoVr1L-92" value="data" style="text;html=1;align=center;verticalAlign=middle;whiteSpace=wrap;rounded=0;fontStyle=1;fontSize=14;" vertex="1" parent="1">
          <mxGeometry x="120" y="-340" width="60" height="30" as="geometry" />
        </mxCell>
        <mxCell id="k4QYSEot3rWmYXcoVr1L-93" value="domain" style="text;html=1;align=center;verticalAlign=middle;whiteSpace=wrap;rounded=0;fontStyle=1;fontSize=14;" vertex="1" parent="1">
          <mxGeometry x="125" y="320" width="60" height="30" as="geometry" />
        </mxCell>
        <mxCell id="k4QYSEot3rWmYXcoVr1L-94" value="presentation" style="text;html=1;align=center;verticalAlign=middle;whiteSpace=wrap;rounded=0;fontStyle=1;fontSize=14;" vertex="1" parent="1">
          <mxGeometry x="80" y="840" width="60" height="30" as="geometry" />
        </mxCell>
      </root>
    </mxGraphModel>
  </diagram>
</mxfile>
